<svg id="Layer_1" data-name="Layer 1" xmlns="http://www.w3.org/2000/svg" viewBox="0 0 322.24 76"><defs><style>.cls-1{fill:#f68b1f;}.cls-2{fill:#0b1e40;}.cls-3{fill:#0450bc;}.cls-4{fill:#c60586;}.cls-5{fill:#ef0803;}.cls-6{fill:#eded03;}.cls-7{fill:#0377aa;}.cls-8{fill:#f27a86;}.cls-9{fill:#ff808b;}</style></defs><title>ICC logo EN-FR</title><path class="cls-1" d="M46.58,3V46.57L63.52,63.51A36,36,0,0,0,46.58,3"/><polygon class="cls-2" points="29.5 73.05 29.5 73.05 38.04 38.03 29.5 29.49 29.5 73.05"/><path class="cls-3" d="M46.58,46.57,38,38l-8.54,35a36.11,36.11,0,0,0,6.77,1h3.54a36.11,36.11,0,0,0,6.77-1Z"/><polygon class="cls-4" points="46.58 46.57 46.58 3 38.04 38.03 46.58 46.57"/><path class="cls-5" d="M38,38,46.58,3A36.61,36.61,0,0,0,29.5,3V29.49Z"/><path class="cls-6" d="M46.58,46.57V73.05a35.83,35.83,0,0,0,16.94-9.54Z"/><path class="cls-7" d="M29.5,29.49,12.56,12.54l-.32.32-.15.16-.15.16-.21.22-.09.09-.25.28,0,0A36.23,36.23,0,0,0,4.85,24a.14.14,0,0,1,0,.06,1.47,1.47,0,0,1-.1.22l-.09.22,0,.07A35.89,35.89,0,0,0,2,36.29v0c0,.13,0,.26,0,.38v.12c0,.11,0,.21,0,.31v.22c0,.07,0,.15,0,.22v.89c0,.08,0,.15,0,.22v.22c0,.1,0,.21,0,.31v.12c0,.13,0,.26,0,.38v.05A35.89,35.89,0,0,0,4.62,51.54l0,.06a1.47,1.47,0,0,0,.1.22l.09.22,0,.07a36.18,36.18,0,0,0,6.51,10.14l0,0,.25.27.09.1.21.22.15.16.15.15.32.32.31.32L13,64l.16.15.22.21.09.09.28.25,0,0A36.12,36.12,0,0,0,24,71.21l.07,0,.21.09.23.09.06,0a36.86,36.86,0,0,0,5,1.6Z"/><path class="cls-8" d="M12.56,12.54l-.32.32Z"/><path class="cls-9" d="M29.5,3a35.94,35.94,0,0,0-16.94,9.53l16.94,17Z"/><path class="cls-7" d="M172.42,58.69a1.16,1.16,0,0,1-1.07.64,1.14,1.14,0,0,1-1-.62,3.17,3.17,0,0,1-.33-1.58,3.39,3.39,0,0,1,.29-1.5,1.17,1.17,0,0,1,1.07-.67,1.21,1.21,0,0,1,1.11.67,3.72,3.72,0,0,1,0,3.06m3.1-3.55a3.56,3.56,0,0,0-3.41-2.67,2.33,2.33,0,0,0-2,1c-.05.05-.1,0-.1,0v-.58a.21.21,0,0,0-.21-.21h-2.49a.2.2,0,0,0-.21.21V64.67a.2.2,0,0,0,.21.21h2.49a.21.21,0,0,0,.21-.21V61c0-.08,0-.11.1,0a2.28,2.28,0,0,0,1.91.82,3.55,3.55,0,0,0,3.44-2.43,6.25,6.25,0,0,0,.36-2.21,6.82,6.82,0,0,0-.28-2m-13.25,6.53h2.49a.19.19,0,0,0,.21-.21V52.82a.2.2,0,0,0-.21-.21h-2.49a.21.21,0,0,0-.21.21v8.64a.2.2,0,0,0,.21.21m1.27-9.86a1.48,1.48,0,0,0,1.52-1.53,1.53,1.53,0,0,0-3.05,0,1.48,1.48,0,0,0,1.53,1.53m-6.58.66a2.33,2.33,0,0,0-2.1,1c0,.07-.09.05-.09,0V49.62a.19.19,0,0,0-.21-.21h-2.49a.2.2,0,0,0-.21.21V61.46a.2.2,0,0,0,.21.21h2.49a.19.19,0,0,0,.21-.21V56.33a1.21,1.21,0,1,1,2.4,0v5.13a.2.2,0,0,0,.21.21h2.49a.19.19,0,0,0,.21-.21V55.7A3,3,0,0,0,157,52.47m-10.72,9.34c2.36,0,4-1,4-2.85,0-1.44-1-2.12-2.3-2.54s-2.87-.37-2.87-1.06c0-.4.47-.63,1.1-.63s1.17.32,1.17.76a.21.21,0,0,0,.22.21h2.29a.21.21,0,0,0,.21-.21c0-1.79-1.56-3-3.92-3s-3.86,1.12-3.86,3a2.58,2.58,0,0,0,2,2.44c1.45.65,3.08.47,3.08,1.17,0,.37-.42.62-1.07.62s-1.3-.33-1.3-.77a.19.19,0,0,0-.21-.21h-2.36a.2.2,0,0,0-.21.21v.19c0,1.61,1.57,2.73,4.1,2.73m-8.75-9.34a2.33,2.33,0,0,0-2.1,1c0,.07-.09.05-.09,0v-.65a.21.21,0,0,0-.21-.21H132.6a.21.21,0,0,0-.21.21v8.64a.2.2,0,0,0,.21.21h2.49a.2.2,0,0,0,.21-.21V56.33a1.21,1.21,0,1,1,2.4,0v5.13a.2.2,0,0,0,.21.21h2.49a.19.19,0,0,0,.21-.21V55.7a3,3,0,0,0-3.12-3.23M126.33,55a1.2,1.2,0,0,1,1.26.9,1.6,1.6,0,0,1,.07.33.07.07,0,0,1-.07.09H125.1a.07.07,0,0,1-.07-.09,1.82,1.82,0,0,1,.09-.37,1.19,1.19,0,0,1,1.21-.86m4.29,1.39a4.26,4.26,0,0,0-4.29-3.89,4,4,0,0,0-4,2.78,5.48,5.48,0,0,0-.28,1.91,5.14,5.14,0,0,0,.37,2,4.25,4.25,0,0,0,4.24,2.63,4.62,4.62,0,0,0,3.56-1.36.18.18,0,0,0,0-.28l-1.35-1.55a.18.18,0,0,0-.3,0,2.19,2.19,0,0,1-1.66.72,1.79,1.79,0,0,1-1.74-.82A2,2,0,0,1,125,58c0-.05,0-.09.08-.09h5.35a.22.22,0,0,0,.23-.21,7.8,7.8,0,0,0-.06-1.38m-16.87,5.32h6.94a.2.2,0,0,0,.21-.21V59.25a.21.21,0,0,0-.21-.21H117c-.07,0-.11,0-.06-.1l3.74-3.59a.35.35,0,0,0,.1-.27V52.82a.21.21,0,0,0-.21-.21h-6.73a.21.21,0,0,0-.21.21V55a.21.21,0,0,0,.21.21h3.33c.07,0,.11,0,0,.11l-3.59,3.59a.31.31,0,0,0-.1.26v2.26a.19.19,0,0,0,.21.21m-4.58,0h2.49a.2.2,0,0,0,.21-.21V52.82a.21.21,0,0,0-.21-.21h-2.49a.21.21,0,0,0-.21.21v8.64a.2.2,0,0,0,.21.21m1.26-9.86A1.49,1.49,0,0,0,112,50.28a1.53,1.53,0,0,0-3,0,1.47,1.47,0,0,0,1.52,1.53m-3.2,2.92V52.82a.21.21,0,0,0-.21-.21h-1.6a.08.08,0,0,1-.09-.09V50.4a.2.2,0,0,0-.21-.21h-2.36a.2.2,0,0,0-.21.21v2.12a.08.08,0,0,1-.09.09h-1a.21.21,0,0,0-.21.21v1.91a.2.2,0,0,0,.21.21h1a.09.09,0,0,1,.09.09v4.38c0,1.91,1.14,2.32,3,2.32.39,0,.81,0,1.23,0a.22.22,0,0,0,.21-.23v-2a.21.21,0,0,0-.21-.21h-.65c-.58,0-.81-.37-.81-1V55a.09.09,0,0,1,.09-.09H107a.2.2,0,0,0,.21-.21M96.9,61.67h2.49a.19.19,0,0,0,.21-.21V52.82a.2.2,0,0,0-.21-.21H96.9a.21.21,0,0,0-.21.21v8.64a.2.2,0,0,0,.21.21m1.27-9.86a1.48,1.48,0,0,0,1.52-1.53,1.53,1.53,0,0,0-3,0,1.48,1.48,0,0,0,1.53,1.53m-8.08,10c2.82,0,4.69-1.66,4.69-4.17,0-.1-.08-.17-.21-.17l-2.49-.13a.19.19,0,0,0-.21.2,1.79,1.79,0,1,1-3.57,0v-4a1.79,1.79,0,1,1,3.57,0c0,.14.07.19.21.19l2.49-.16a.19.19,0,0,0,.21-.19c0-2.49-1.87-4.13-4.69-4.13s-4.7,1.73-4.7,4.36v3.79c0,2.64,1.87,4.39,4.7,4.39"/><path class="cls-7" d="M182.6,34.22a2.33,2.33,0,0,0-2.1,1c0,.07-.09,0-.09,0v-.65a.19.19,0,0,0-.21-.21h-2.49a.2.2,0,0,0-.21.21v8.64a.21.21,0,0,0,.21.21h2.49a.2.2,0,0,0,.21-.21V38.07a1.21,1.21,0,1,1,2.4,0v5.14a.21.21,0,0,0,.21.21h2.49a.2.2,0,0,0,.21-.21V37.44a3,3,0,0,0-3.12-3.22m-11.49,7.25c-.63,0-1-.33-1-.84s.51-.91,1.38-.91h1a.08.08,0,0,1,.09.09v.42c0,.77-.66,1.24-1.52,1.24m.28-7.25c-2.26,0-3.91,1.19-4,2.73,0,.09.09.14.21.16l2.52.33c.13,0,.2,0,.25-.17.12-.34.54-.56,1.12-.56.77,0,1.19.4,1.19,1v.33a.08.08,0,0,1-.09.09h-1.7c-2.4,0-3.66,1-3.66,2.82s1.26,2.6,3.07,2.6a2.53,2.53,0,0,0,2.28-1c.05-.09.1-.07.1,0v.62a.21.21,0,0,0,.21.21h2.49a.21.21,0,0,0,.21-.21v-6c0-1.7-1.77-3-4.15-3m-8.52,9.2h2.49a.21.21,0,0,0,.21-.21V34.57a.2.2,0,0,0-.21-.21h-2.49a.2.2,0,0,0-.21.21v8.64a.21.21,0,0,0,.21.21m1.26-9.87A1.48,1.48,0,0,0,165.66,32a1.53,1.53,0,1,0-3,0,1.47,1.47,0,0,0,1.52,1.52m-6.76,6.84a1.18,1.18,0,0,1-1.07.68,1.22,1.22,0,0,1-1.11-.67,3.18,3.18,0,0,1-.31-1.5,3.05,3.05,0,0,1,.35-1.56,1.15,1.15,0,0,1,1.07-.63,1.13,1.13,0,0,1,1,.61,3.11,3.11,0,0,1,.34,1.58,3.37,3.37,0,0,1-.3,1.49m.3-9V35c0,.07-.06.1-.11,0a2.28,2.28,0,0,0-1.91-.82,3.53,3.53,0,0,0-3.44,2.41,6.33,6.33,0,0,0-.36,2.21,6.93,6.93,0,0,0,.28,2,3.55,3.55,0,0,0,3.41,2.68,2.33,2.33,0,0,0,2-1c.05-.05.11,0,.11,0v.58a.2.2,0,0,0,.21.21h2.48a.2.2,0,0,0,.21-.21V31.36a.2.2,0,0,0-.21-.21h-2.48a.2.2,0,0,0-.21.21m-12,10.11c-.63,0-1-.33-1-.84s.51-.91,1.39-.91h1a.08.08,0,0,1,.09.09v.42c0,.77-.67,1.24-1.53,1.24m.28-7.25c-2.26,0-3.91,1.19-4.05,2.73,0,.09.09.14.21.16l2.53.33c.12,0,.19,0,.24-.17a1.11,1.11,0,0,1,1.12-.56c.77,0,1.2.4,1.2,1v.33a.08.08,0,0,1-.09.09h-1.7c-2.4,0-3.67,1-3.67,2.82s1.27,2.6,3.07,2.6a2.53,2.53,0,0,0,2.28-1c0-.09.11-.07.11,0v.62a.2.2,0,0,0,.21.21h2.48a.2.2,0,0,0,.21-.21v-6c0-1.7-1.77-3-4.15-3m-8.85,0a2.3,2.3,0,0,0-2.1,1c0,.07-.09,0-.09,0v-.65a.2.2,0,0,0-.21-.21H132.2a.2.2,0,0,0-.21.21v8.64a.21.21,0,0,0,.21.21h2.49a.21.21,0,0,0,.21-.21V38.07a1.21,1.21,0,1,1,2.4,0v5.14a.21.21,0,0,0,.21.21H140a.21.21,0,0,0,.21-.21V37.44a3,3,0,0,0-3.12-3.22m-11.5,7.25c-.63,0-1-.33-1-.84s.51-.91,1.39-.91h1a.08.08,0,0,1,.09.09v.42c0,.77-.67,1.24-1.53,1.24m.28-7.25c-2.26,0-3.9,1.19-4,2.73,0,.09.08.14.21.16l2.52.33c.12,0,.19,0,.24-.17a1.13,1.13,0,0,1,1.13-.56c.77,0,1.19.4,1.19,1v.33a.08.08,0,0,1-.09.09h-1.7c-2.4,0-3.66,1-3.66,2.82s1.26,2.6,3.07,2.6a2.5,2.5,0,0,0,2.27-1c.06-.09.11-.07.11,0v.62a.21.21,0,0,0,.21.21h2.49a.21.21,0,0,0,.21-.21v-6c0-1.7-1.77-3-4.16-3m-10.34,9.34c2.83,0,4.7-1.67,4.7-4.17a.19.19,0,0,0-.21-.18l-2.49-.12c-.14,0-.21.07-.21.19a1.79,1.79,0,1,1-3.57,0v-4a1.79,1.79,0,1,1,3.57,0c0,.14.07.2.21.2l2.49-.16a.2.2,0,0,0,.21-.19c0-2.49-1.87-4.14-4.7-4.14s-4.69,1.73-4.69,4.36v3.79c0,2.64,1.87,4.4,4.69,4.4M105,34.46a2.49,2.49,0,0,0-2.26,1.37c0,.05-.07,0-.07,0V34.72a.17.17,0,0,0-.18-.17h-.89a.17.17,0,0,0-.18.17v8.52a.17.17,0,0,0,.18.18h.89a.17.17,0,0,0,.18-.18V38.07a2.16,2.16,0,0,1,2.1-2.29,1.91,1.91,0,0,1,.91.1.16.16,0,0,0,.23-.1l.19-.86a.19.19,0,0,0-.1-.23,2,2,0,0,0-1-.23m-9.89,8a2.21,2.21,0,0,1-2.27-1.72A8.59,8.59,0,0,1,92.65,39a8.86,8.86,0,0,1,.14-1.77,2.36,2.36,0,0,1,4.53,0A8.45,8.45,0,0,1,97.47,39a8.35,8.35,0,0,1-.16,1.77,2.23,2.23,0,0,1-2.25,1.72m0,1.09a3.34,3.34,0,0,0,3.4-2.44A6.79,6.79,0,0,0,98.71,39a7,7,0,0,0-.25-2.16,3.35,3.35,0,0,0-3.38-2.4,3.38,3.38,0,0,0-3.45,2.42A7.22,7.22,0,0,0,91.38,39a7.47,7.47,0,0,0,.25,2.15,3.39,3.39,0,0,0,3.43,2.44M89.63,32.24H90a.17.17,0,0,0,.18-.18v-.74a.17.17,0,0,0-.18-.17h-.5c-2.18,0-2.79.82-2.79,2.91v.42a.08.08,0,0,1-.07.07H85.5a.17.17,0,0,0-.18.17v.79a.17.17,0,0,0,.18.18h1.17a.08.08,0,0,1,.07.07v7.48a.17.17,0,0,0,.17.18h.88a.17.17,0,0,0,.18-.18V35.76a.07.07,0,0,1,.07-.07h2a.17.17,0,0,0,.17-.18v-.79a.16.16,0,0,0-.17-.17H88a.08.08,0,0,1-.07-.07v-.35c0-1.33.33-1.89,1.66-1.89"/><path class="cls-7" d="M151.16,18.45a1.18,1.18,0,0,1,1.26.89,1.21,1.21,0,0,1,.07.34c0,.05,0,.08-.07.08h-2.48c-.06,0-.09,0-.07-.08a1.7,1.7,0,0,1,.08-.37,1.18,1.18,0,0,1,1.21-.86m4.3,1.38a4.29,4.29,0,0,0-4.3-3.89,4.06,4.06,0,0,0-4,2.79,5.72,5.72,0,0,0-.28,1.91,5.33,5.33,0,0,0,.37,2,4.25,4.25,0,0,0,4.24,2.63,4.63,4.63,0,0,0,3.56-1.37.18.18,0,0,0,0-.28l-1.35-1.54a.18.18,0,0,0-.3,0,2.16,2.16,0,0,1-1.66.72A1.79,1.79,0,0,1,150,22a1.84,1.84,0,0,1-.17-.5c0-.06,0-.09.09-.09h5.34a.22.22,0,0,0,.23-.21,7.1,7.1,0,0,0,0-1.39m-9.89-1.61V16.31a.21.21,0,0,0-.22-.21h-1.59a.08.08,0,0,1-.09-.09V13.89a.21.21,0,0,0-.21-.21H141.1a.2.2,0,0,0-.21.21V16a.08.08,0,0,1-.09.09h-1a.21.21,0,0,0-.21.21v1.91a.21.21,0,0,0,.21.21h1a.09.09,0,0,1,.09.09V22.9c0,1.91,1.14,2.31,3,2.31l1.23,0a.22.22,0,0,0,.21-.23v-2a.21.21,0,0,0-.21-.21h-.65c-.58,0-.81-.37-.81-1V18.52a.09.09,0,0,1,.09-.09h1.59a.21.21,0,0,0,.22-.21M135,16.31v5.4a1.18,1.18,0,0,1-1.21,1.09,1.2,1.2,0,0,1-1.17-1.35V16.31a.21.21,0,0,0-.21-.21h-2.49a.21.21,0,0,0-.21.21v5.8a2.87,2.87,0,0,0,3,3.19,2.53,2.53,0,0,0,2.21-1c.05-.07.1,0,.1,0V25a.21.21,0,0,0,.21.21h2.49a.21.21,0,0,0,.21-.21V16.31a.21.21,0,0,0-.21-.21h-2.49a.21.21,0,0,0-.21.21m-7,1.91V16.31a.21.21,0,0,0-.21-.21h-1.6s-.08,0-.08-.09V13.89a.21.21,0,0,0-.21-.21h-2.37a.21.21,0,0,0-.21.21V16a.08.08,0,0,1-.09.09h-1a.21.21,0,0,0-.21.21v1.91a.21.21,0,0,0,.21.21h1a.09.09,0,0,1,.09.09V22.9c0,1.91,1.14,2.31,3,2.31l1.23,0a.22.22,0,0,0,.21-.23v-2a.21.21,0,0,0-.21-.21h-.65c-.58,0-.8-.37-.8-1V18.52a.08.08,0,0,1,.08-.09h1.6a.21.21,0,0,0,.21-.21m-10.27,6.94h2.49a.2.2,0,0,0,.21-.21V16.31a.2.2,0,0,0-.21-.21h-2.49a.21.21,0,0,0-.21.21V25a.21.21,0,0,0,.21.21M119,15.29a1.48,1.48,0,0,0,1.52-1.52A1.53,1.53,0,1,0,119,15.29m-3.31,2.93V16.31a.2.2,0,0,0-.21-.21h-1.59a.08.08,0,0,1-.09-.09V13.89a.21.21,0,0,0-.21-.21h-2.36a.2.2,0,0,0-.21.21V16a.08.08,0,0,1-.09.09h-1a.21.21,0,0,0-.21.21v1.91a.21.21,0,0,0,.21.21h1a.09.09,0,0,1,.09.09V22.9c0,1.91,1.13,2.31,3,2.31l1.23,0a.22.22,0,0,0,.21-.23v-2a.21.21,0,0,0-.21-.21h-.65c-.58,0-.81-.37-.81-1V18.52a.09.09,0,0,1,.09-.09h1.59a.2.2,0,0,0,.21-.21M104.51,25.3c2.37,0,4-1,4-2.86,0-1.43-1-2.12-2.29-2.54s-2.88-.36-2.88-1c0-.4.48-.63,1.11-.63s1.17.32,1.17.75a.21.21,0,0,0,.21.22h2.3a.21.21,0,0,0,.21-.22c0-1.78-1.56-3-3.93-3s-3.85,1.12-3.85,3a2.59,2.59,0,0,0,1.94,2.44c1.46.65,3.09.47,3.09,1.17,0,.37-.43.62-1.07.62s-1.3-.34-1.3-.78a.21.21,0,0,0-.21-.21h-2.37a.21.21,0,0,0-.21.21v.2c0,1.61,1.58,2.73,4.1,2.73M95.77,16a2.3,2.3,0,0,0-2.1,1c0,.07-.09.06-.09,0v-.65a.21.21,0,0,0-.21-.21H90.88a.21.21,0,0,0-.21.21V25a.21.21,0,0,0,.21.21h2.49a.21.21,0,0,0,.21-.21V19.82a1.21,1.21,0,1,1,2.4,0V25a.21.21,0,0,0,.21.21h2.49a.21.21,0,0,0,.21-.21V19.19A3,3,0,0,0,95.77,16m-10,9.2h2.49a.21.21,0,0,0,.21-.21V13.1a.21.21,0,0,0-.21-.21H85.79a.21.21,0,0,0-.21.21V25a.21.21,0,0,0,.21.21"/><path class="cls-3" d="M295.27,55a1.21,1.21,0,0,1,1.27.9,2.72,2.72,0,0,1,.07.33.07.07,0,0,1-.07.09h-2.49a.07.07,0,0,1-.07-.09,1.82,1.82,0,0,1,.09-.37,1.17,1.17,0,0,1,1.2-.86m4.3,1.39a4.27,4.27,0,0,0-4.3-3.89,4,4,0,0,0-4,2.78,5.26,5.26,0,0,0-.28,1.91,5.33,5.33,0,0,0,.36,2,4.25,4.25,0,0,0,4.24,2.63,4.62,4.62,0,0,0,3.56-1.36.18.18,0,0,0,0-.28l-1.35-1.55a.17.17,0,0,0-.29,0,2.19,2.19,0,0,1-1.67.72,1.78,1.78,0,0,1-1.73-.82A2.55,2.55,0,0,1,294,58c0-.05,0-.09.09-.09h5.34a.22.22,0,0,0,.23-.21,7,7,0,0,0-.05-1.38m-13.44-3.88a2.34,2.34,0,0,0-2.11,1c0,.07-.08.05-.08,0v-.65a.21.21,0,0,0-.21-.21h-2.49a.2.2,0,0,0-.21.21v8.64a.19.19,0,0,0,.21.21h2.49a.2.2,0,0,0,.21-.21V56.33a1.21,1.21,0,1,1,2.4,0v5.13a.19.19,0,0,0,.21.21H289a.2.2,0,0,0,.21-.21V55.7a3,3,0,0,0-3.12-3.23m-10.17,0a2.32,2.32,0,0,0-2.1,1c0,.07-.09.05-.09,0v-.65a.21.21,0,0,0-.21-.21h-2.49a.21.21,0,0,0-.21.21v8.64a.2.2,0,0,0,.21.21h2.49a.2.2,0,0,0,.21-.21V56.33a1.21,1.21,0,1,1,2.4,0v5.13a.2.2,0,0,0,.21.21h2.49a.2.2,0,0,0,.21-.21V55.7A3,3,0,0,0,276,52.47M264.8,55a1.2,1.2,0,0,1,1.26.9,2.72,2.72,0,0,1,.07.33.07.07,0,0,1-.07.09h-2.49a.07.07,0,0,1-.07-.09,1.82,1.82,0,0,1,.09-.37A1.19,1.19,0,0,1,264.8,55m4.29,1.39a4.26,4.26,0,0,0-4.29-3.89,4,4,0,0,0-4,2.78,5.48,5.48,0,0,0-.28,1.91,5.14,5.14,0,0,0,.37,2,4.25,4.25,0,0,0,4.24,2.63,4.64,4.64,0,0,0,3.56-1.36.19.19,0,0,0,0-.28l-1.35-1.55a.18.18,0,0,0-.3,0,2.19,2.19,0,0,1-1.67.72,1.78,1.78,0,0,1-1.73-.82,2.55,2.55,0,0,1-.18-.51c0-.05,0-.09.09-.09h5.35a.21.21,0,0,0,.22-.21,7,7,0,0,0-.05-1.38M256,61.67h2.49a.19.19,0,0,0,.21-.21V52.82a.2.2,0,0,0-.21-.21H256a.21.21,0,0,0-.21.21v8.64a.2.2,0,0,0,.21.21m1.27-9.86a1.48,1.48,0,0,0,1.52-1.53,1.53,1.53,0,0,0-3.05,0,1.48,1.48,0,0,0,1.53,1.53m-6.77,6.83a1.19,1.19,0,0,1-1.07.69,1.23,1.23,0,0,1-1.1-.67,3.69,3.69,0,0,1,0-3.07,1.17,1.17,0,0,1,1.07-.63,1.15,1.15,0,0,1,1,.61,3.25,3.25,0,0,1,.33,1.58,3.34,3.34,0,0,1-.3,1.49m.3-9v3.64c0,.07,0,.11-.11,0a2.28,2.28,0,0,0-1.91-.83,3.53,3.53,0,0,0-3.43,2.42,6.3,6.3,0,0,0-.37,2.21,7.21,7.21,0,0,0,.28,2,3.55,3.55,0,0,0,3.42,2.68,2.29,2.29,0,0,0,2-1c.06-.05.11,0,.11,0v.58a.2.2,0,0,0,.21.21h2.49a.2.2,0,0,0,.21-.21V49.62a.2.2,0,0,0-.21-.21H251a.2.2,0,0,0-.21.21m-12,10.11c-.63,0-1-.34-1-.84s.5-.91,1.38-.91h1.05a.08.08,0,0,1,.09.08v.42c0,.77-.67,1.25-1.53,1.25m.29-7.26c-2.27,0-3.91,1.19-4,2.74,0,.08.08.14.21.15l2.52.34c.12,0,.19-.06.25-.18a1.12,1.12,0,0,1,1.12-.56c.77,0,1.19.4,1.19,1v.33a.09.09,0,0,1-.09.09h-1.7c-2.4,0-3.66,1.05-3.66,2.82s1.26,2.59,3.07,2.59a2.48,2.48,0,0,0,2.27-1c.06-.09.11-.07.11,0v.61a.2.2,0,0,0,.21.21H243a.2.2,0,0,0,.21-.21v-6c0-1.7-1.77-3-4.15-3m-8.86,0a2.33,2.33,0,0,0-2.1,1c0,.07-.09.05-.09,0v-.65a.2.2,0,0,0-.21-.21h-2.49a.21.21,0,0,0-.21.21v8.64a.2.2,0,0,0,.21.21h2.49a.19.19,0,0,0,.21-.21V56.33a1.21,1.21,0,1,1,2.4,0v5.13a.2.2,0,0,0,.22.21h2.48a.19.19,0,0,0,.21-.21V55.7a3,3,0,0,0-3.12-3.23m-11.49,7.26c-.63,0-1-.34-1-.84s.51-.91,1.38-.91h1.05c.06,0,.09,0,.09.08v.42c0,.77-.66,1.25-1.52,1.25m.28-7.26c-2.26,0-3.91,1.19-4.05,2.74,0,.08.09.14.21.15l2.52.34c.13,0,.2-.06.25-.18A1.12,1.12,0,0,1,219,55c.77,0,1.19.4,1.19,1v.33a.08.08,0,0,1-.09.09h-1.7c-2.4,0-3.66,1.05-3.66,2.82s1.26,2.59,3.07,2.59a2.51,2.51,0,0,0,2.28-1c0-.09.1-.07.1,0v.61a.2.2,0,0,0,.21.21h2.49a.2.2,0,0,0,.21-.21v-6c0-1.7-1.77-3-4.15-3m-9.68,9.34a4,4,0,0,0,4.05-2.59,2.47,2.47,0,0,0,.11-.54.19.19,0,0,0-.18-.23l-2.45-.39a.22.22,0,0,0-.25.18.15.15,0,0,1,0,.07.18.18,0,0,1,0,.1,1.32,1.32,0,0,1-2.51,0,4.58,4.58,0,0,1-.17-1.31,4,4,0,0,1,.19-1.34,1.21,1.21,0,0,1,1.23-.82,1.34,1.34,0,0,1,1.24.75,1.17,1.17,0,0,1,.07.25s0,.11,0,.16a.19.19,0,0,0,.24.17l2.44-.36a.22.22,0,0,0,.19-.23,2.71,2.71,0,0,0-.16-.69,4.15,4.15,0,0,0-4.05-2.54,4.09,4.09,0,0,0-4,2.61,6.17,6.17,0,0,0,0,4,4.09,4.09,0,0,0,4,2.69"/><path class="cls-3" d="M314.71,36.71a1.19,1.19,0,0,1,1.26.89,1.14,1.14,0,0,1,.07.33s0,.09-.07.09h-2.49a.07.07,0,0,1-.07-.09,2.87,2.87,0,0,1,.09-.37,1.18,1.18,0,0,1,1.21-.85M319,38.09a4.27,4.27,0,0,0-4.29-3.89,4.06,4.06,0,0,0-4,2.79,5.44,5.44,0,0,0-.28,1.91,5.18,5.18,0,0,0,.37,2,4.25,4.25,0,0,0,4.24,2.63,4.63,4.63,0,0,0,3.56-1.37.18.18,0,0,0,0-.28l-1.35-1.54a.17.17,0,0,0-.3,0,2.16,2.16,0,0,1-1.66.71,1.79,1.79,0,0,1-1.74-.82,1.91,1.91,0,0,1-.17-.51c0-.05,0-.09.08-.09h5.35a.22.22,0,0,0,.23-.21,7.84,7.84,0,0,0-.06-1.38m-2.29-6.94h-2.16a.28.28,0,0,0-.26.16L313.38,33c-.07.14,0,.25.14.25h1.79a.24.24,0,0,0,.24-.13l1.28-1.75c.11-.14.05-.26-.12-.26M309,36.48V34.57a.2.2,0,0,0-.21-.21h-1.6a.08.08,0,0,1-.08-.09V32.15a.21.21,0,0,0-.21-.21h-2.37a.21.21,0,0,0-.21.21v2.12a.08.08,0,0,1-.09.09h-1a.2.2,0,0,0-.21.21v1.91a.21.21,0,0,0,.21.21h1a.08.08,0,0,1,.09.09v4.38c0,1.91,1.14,2.31,3,2.31l1.23,0a.22.22,0,0,0,.21-.23v-2a.21.21,0,0,0-.21-.21h-.65c-.58,0-.8-.36-.8-1V36.78c0-.06,0-.09.08-.09h1.6a.21.21,0,0,0,.21-.21m-11.43.23a1.18,1.18,0,0,1,1.26.89,1.59,1.59,0,0,1,.08.33.07.07,0,0,1-.08.09h-2.48c-.06,0-.09,0-.07-.09a1.85,1.85,0,0,1,.08-.37,1.19,1.19,0,0,1,1.21-.85m4.3,1.38a4.29,4.29,0,0,0-4.3-3.89,4.07,4.07,0,0,0-4,2.79,5.68,5.68,0,0,0-.28,1.91,5.36,5.36,0,0,0,.37,2,4.25,4.25,0,0,0,4.24,2.63,4.63,4.63,0,0,0,3.56-1.37.18.18,0,0,0,0-.28l-1.35-1.54a.17.17,0,0,0-.3,0,2.15,2.15,0,0,1-1.66.71,1.8,1.8,0,0,1-1.74-.82,1.91,1.91,0,0,1-.17-.51c0-.05,0-.09.09-.09h5.34a.22.22,0,0,0,.23-.21,7,7,0,0,0,0-1.38m-13.29-3.87a2.33,2.33,0,0,0-2.1,1c0,.07-.09,0-.09,0v-.65a.2.2,0,0,0-.21-.21h-2.49a.2.2,0,0,0-.21.21v8.64a.21.21,0,0,0,.21.21h2.49a.21.21,0,0,0,.21-.21V38.07a1.21,1.21,0,1,1,2.4,0v5.14a.21.21,0,0,0,.21.21h2.49a.21.21,0,0,0,.21-.21V37.44a3,3,0,0,0-3.12-3.22m-10.16,0a2.33,2.33,0,0,0-2.11,1c0,.07-.08,0-.08,0v-.65a.2.2,0,0,0-.21-.21h-2.49a.2.2,0,0,0-.21.21v8.64a.21.21,0,0,0,.21.21H276a.21.21,0,0,0,.21-.21V38.07a1.21,1.21,0,1,1,2.4,0v5.14a.21.21,0,0,0,.21.21h2.49a.21.21,0,0,0,.21-.21V37.44a3,3,0,0,0-3.12-3.22m-11.17,2.49a1.2,1.2,0,0,1,1.27.89,2.72,2.72,0,0,1,.07.33.07.07,0,0,1-.07.09H266c-.06,0-.09,0-.07-.09a1.85,1.85,0,0,1,.08-.37,1.19,1.19,0,0,1,1.21-.85m4.3,1.38a4.29,4.29,0,0,0-4.3-3.89,4,4,0,0,0-4,2.79A5.22,5.22,0,0,0,263,38.9a5.37,5.37,0,0,0,.36,2,4.25,4.25,0,0,0,4.24,2.63,4.63,4.63,0,0,0,3.56-1.37.18.18,0,0,0,0-.28l-1.35-1.54a.17.17,0,0,0-.3,0,2.15,2.15,0,0,1-1.66.71,1.81,1.81,0,0,1-1.74-.82,1.91,1.91,0,0,1-.17-.51c0-.05,0-.09.09-.09h5.34a.22.22,0,0,0,.23-.21,7,7,0,0,0-.05-1.38m-17.28,8.82h.12c3.44,0,4.14-.93,4.94-3.32l3-9c.06-.15,0-.24-.17-.24h-2.59a.2.2,0,0,0-.23.17l-1.21,5.19c0,.09-.09.09-.11,0l-1.21-5.19a.2.2,0,0,0-.22-.17h-2.65c-.14,0-.23.09-.18.24l2.83,8.78a.2.2,0,0,1,0,.11c-.16.89-.81,1.05-2.21,1.05a.19.19,0,0,0-.2.21v2c0,.13.06.22.13.22m-5.7-5.84a1.38,1.38,0,0,1-1.33-1.21,4.51,4.51,0,0,1-.11-1,4.43,4.43,0,0,1,.11-1,1.34,1.34,0,0,1,2.65,0,4.33,4.33,0,0,1,.12,1,4.51,4.51,0,0,1-.11,1,1.39,1.39,0,0,1-1.33,1.21m0,2.49a4.07,4.07,0,0,0,4.17-3.19,5.8,5.8,0,0,0,.19-1.54,5.7,5.7,0,0,0-.24-1.69,4.37,4.37,0,0,0-8.25,0,5.73,5.73,0,0,0-.23,1.7,5.64,5.64,0,0,0,.21,1.58,4.07,4.07,0,0,0,4.15,3.12m-5.78-7.08V34.57a.2.2,0,0,0-.21-.21H241a.08.08,0,0,1-.08-.09V32.15a.21.21,0,0,0-.21-.21H238.3a.21.21,0,0,0-.21.21v2.12a.09.09,0,0,1-.09.09h-1a.2.2,0,0,0-.21.21v1.91a.21.21,0,0,0,.21.21h1a.08.08,0,0,1,.09.09v4.38c0,1.91,1.14,2.31,3,2.31l1.23,0a.22.22,0,0,0,.21-.23v-2a.21.21,0,0,0-.21-.21h-.65c-.58,0-.8-.36-.8-1V36.78c0-.06,0-.09.08-.09h1.6a.21.21,0,0,0,.21-.21m-10.32,6.94h2.48a.2.2,0,0,0,.21-.21V34.57a.19.19,0,0,0-.21-.21h-2.48a.19.19,0,0,0-.21.21v8.64a.2.2,0,0,0,.21.21m1.26-9.87A1.48,1.48,0,0,0,235.23,32a1.53,1.53,0,1,0-3,0,1.47,1.47,0,0,0,1.53,1.52m-7.4,10a4,4,0,0,0,4.05-2.6,1.88,1.88,0,0,0,.1-.54.19.19,0,0,0-.17-.23l-2.45-.38a.2.2,0,0,0-.25.17s0,.05,0,.07a.41.41,0,0,1,0,.11,1.28,1.28,0,0,1-1.27.91,1.26,1.26,0,0,1-1.24-.89,4.33,4.33,0,0,1-.18-1.32,3.61,3.61,0,0,1,.2-1.33,1.19,1.19,0,0,1,1.22-.82,1.34,1.34,0,0,1,1.25.75c0,.09.05.16.07.24a1.1,1.1,0,0,1,0,.16.22.22,0,0,0,.25.18l2.43-.37a.22.22,0,0,0,.2-.23,3.17,3.17,0,0,0-.16-.68,4.15,4.15,0,0,0-4.05-2.54,4.11,4.11,0,0,0-4.05,2.61,6.32,6.32,0,0,0,0,4,4.11,4.11,0,0,0,4.05,2.7m-13.74-1.07c-1.09,0-1.93-.49-1.93-1.56s1-1.79,2.56-1.79H215a.08.08,0,0,1,.07.07v1.37c0,1.23-1.24,1.91-2.54,1.91m.49-8.08c-1.84,0-3.13.91-3.33,2.21,0,.07.05.12.16.14l1,.12c.1,0,.17,0,.21-.16.15-.75.89-1.22,2-1.22,1.46,0,2.05.78,2.05,1.92v.67a.08.08,0,0,1-.07.07h-2c-2.28,0-3.61,1.09-3.61,2.84s1.44,2.56,2.93,2.56a3.49,3.49,0,0,0,2.7-1.07c.05-.05.08,0,.08,0v.72a.17.17,0,0,0,.18.18h.89a.17.17,0,0,0,.18-.18V37.35c0-1.73-1.16-2.94-3.3-2.94m-7.1,9h.9a.17.17,0,0,0,.17-.18V31.32a.16.16,0,0,0-.17-.17H206a.16.16,0,0,0-.17.17V43.24a.17.17,0,0,0,.17.18"/><path class="cls-3" d="M303.43,16.21a2.49,2.49,0,0,0-2.26,1.36c0,.06-.07,0-.07,0V16.47a.17.17,0,0,0-.18-.18H300a.17.17,0,0,0-.18.18V25a.17.17,0,0,0,.18.17h.89a.17.17,0,0,0,.18-.17V19.82a2.17,2.17,0,0,1,2.1-2.3,2,2,0,0,1,.91.11c.13.05.2,0,.23-.11l.19-.86a.19.19,0,0,0-.1-.23,2.06,2.06,0,0,0-1-.22m-7.78.26V22a2,2,0,0,1-2.17,2.18A2,2,0,0,1,291.39,22V16.47a.17.17,0,0,0-.18-.18h-.89a.17.17,0,0,0-.17.18v5.92a2.84,2.84,0,0,0,3.08,2.89,2.63,2.63,0,0,0,2.33-1.08c0-.06.09,0,.09,0V25a.16.16,0,0,0,.17.17h.9a.16.16,0,0,0,.17-.17V16.47a.17.17,0,0,0-.17-.18h-.9a.17.17,0,0,0-.17.18m-11.71,7.75a2.23,2.23,0,0,1-2.28-1.72,8.72,8.72,0,0,1-.14-1.77,8.72,8.72,0,0,1,.14-1.77,2.36,2.36,0,0,1,4.54,0,8.52,8.52,0,0,1,.14,1.77,7.74,7.74,0,0,1-.16,1.77,2.23,2.23,0,0,1-2.24,1.72m0,1.08a3.36,3.36,0,0,0,3.4-2.43,7.12,7.12,0,0,0,.25-2.16,7.37,7.37,0,0,0-.25-2.16,3.62,3.62,0,0,0-6.83,0,7.22,7.22,0,0,0-.25,2.14,7.54,7.54,0,0,0,.25,2.16,3.39,3.39,0,0,0,3.43,2.43m-7.37-2.36a2,2,0,0,1-2,1.28,1.91,1.91,0,0,1-1.84-1.32,5,5,0,0,1-.31-2.17,4.93,4.93,0,0,1,.29-2.14,1.9,1.9,0,0,1,1.88-1.35,2,2,0,0,1,2,1.37,4.66,4.66,0,0,1,.32,2.12,4.35,4.35,0,0,1-.39,2.21M278,18.5a3.15,3.15,0,0,0-3.21-2.35,2.68,2.68,0,0,0-2.22,1.07c-.06.05-.09,0-.09,0v-.73a.17.17,0,0,0-.18-.18h-.89a.17.17,0,0,0-.18.18V28.39a.17.17,0,0,0,.18.17h.89a.17.17,0,0,0,.18-.17V24.27c0-.05,0-.07.09,0a2.69,2.69,0,0,0,2.22,1.05A3.13,3.13,0,0,0,278,22.9a7.63,7.63,0,0,0,.23-2.17A7.54,7.54,0,0,0,278,18.5M265,18.22V16.31a.21.21,0,0,0-.22-.21h-1.59a.08.08,0,0,1-.09-.09V13.89a.21.21,0,0,0-.21-.21h-2.36a.2.2,0,0,0-.21.21V16a.08.08,0,0,1-.09.09h-1a.21.21,0,0,0-.21.21v1.91a.21.21,0,0,0,.21.21h1a.09.09,0,0,1,.09.09V22.9c0,1.91,1.14,2.31,3,2.31l1.23,0a.22.22,0,0,0,.21-.23v-2a.21.21,0,0,0-.21-.21h-.65c-.58,0-.81-.37-.81-1V18.52a.09.09,0,0,1,.09-.09h1.59a.21.21,0,0,0,.22-.21m-10.5-1.91v5.4a1.2,1.2,0,1,1-2.39-.26V16.31a.2.2,0,0,0-.21-.21h-2.48a.21.21,0,0,0-.22.21v5.8a2.88,2.88,0,0,0,3,3.19,2.51,2.51,0,0,0,2.21-1c.05-.07.11,0,.11,0V25a.21.21,0,0,0,.21.21h2.49a.21.21,0,0,0,.21-.21V16.31a.21.21,0,0,0-.21-.21h-2.49a.21.21,0,0,0-.21.21m-6.94,1.91V16.31a.21.21,0,0,0-.21-.21h-1.6a.08.08,0,0,1-.09-.09V13.89a.2.2,0,0,0-.21-.21h-2.36a.21.21,0,0,0-.21.21V16a.08.08,0,0,1-.09.09h-1a.21.21,0,0,0-.21.21v1.91a.21.21,0,0,0,.21.21h1a.09.09,0,0,1,.09.09V22.9c0,1.91,1.14,2.31,3,2.31l1.23,0a.22.22,0,0,0,.21-.23v-2a.21.21,0,0,0-.21-.21h-.65c-.58,0-.81-.37-.81-1V18.52a.09.09,0,0,1,.09-.09h1.6a.21.21,0,0,0,.21-.21m-10.33,6.94h2.49A.2.2,0,0,0,240,25V16.31a.2.2,0,0,0-.21-.21h-2.49a.21.21,0,0,0-.21.21V25a.21.21,0,0,0,.21.21m1.27-9.87a1.48,1.48,0,0,0,1.52-1.52,1.53,1.53,0,1,0-1.52,1.52m-3.21,2.93V16.31a.21.21,0,0,0-.21-.21h-1.6s-.08,0-.08-.09V13.89a.21.21,0,0,0-.21-.21h-2.37a.21.21,0,0,0-.21.21V16a.08.08,0,0,1-.09.09h-1a.21.21,0,0,0-.21.21v1.91a.21.21,0,0,0,.21.21h1a.08.08,0,0,1,.09.09V22.9c0,1.91,1.14,2.31,3,2.31l1.23,0a.22.22,0,0,0,.21-.23v-2a.21.21,0,0,0-.21-.21h-.65c-.58,0-.8-.37-.8-1V18.52a.08.08,0,0,1,.08-.09h1.6a.21.21,0,0,0,.21-.21M224.14,25.3c2.36,0,4-1,4-2.86,0-1.43-1-2.12-2.3-2.54s-2.87-.36-2.87-1c0-.4.47-.63,1.1-.63s1.18.32,1.18.75a.2.2,0,0,0,.21.22h2.29a.21.21,0,0,0,.21-.22c0-1.78-1.56-3-3.92-3s-3.86,1.12-3.86,3a2.59,2.59,0,0,0,2,2.44c1.45.65,3.08.47,3.08,1.17,0,.37-.42.62-1.07.62s-1.3-.34-1.3-.78a.2.2,0,0,0-.21-.21h-2.36a.2.2,0,0,0-.21.21v.2c0,1.61,1.57,2.73,4.1,2.73M215.39,16a2.33,2.33,0,0,0-2.1,1c0,.07-.09.06-.09,0v-.65a.21.21,0,0,0-.21-.21H210.5a.21.21,0,0,0-.21.21V25a.21.21,0,0,0,.21.21H213a.21.21,0,0,0,.21-.21V19.82a1.21,1.21,0,1,1,2.4,0V25a.21.21,0,0,0,.21.21h2.49a.2.2,0,0,0,.21-.21V19.19A3,3,0,0,0,215.39,16m-9.93,9.2h2.48a.2.2,0,0,0,.21-.21V13.1a.2.2,0,0,0-.21-.21h-2.48a.2.2,0,0,0-.21.21V25a.2.2,0,0,0,.21.21"/></svg>